:SAMPLES-PER-SECOND 30
:FRAME-RANGE 1-2009
:FULLY-SPECIFIED
:DEGREES
879
root  78.2294 38.4245 28.5607 0.73233 -13.5856 6.92238
RightUpLeg  -31.3421 -14.3961 -2.01775
RightLeg  24.7524 -6.03622 -3.2429
RightFoot  -3.03819 -0.129854 1.50346
RightToes  2.96424e-010 1.2921e-014 -6.02303e-014
Spine  -2.05287 -3.76537 -5.82344
Spine1  5.76394 -3.68934 0.208826
HEad  25.9377 -14.4765 1.49976
LeftShoulder1  0.679927 0.304621 -16.1457
LeftArm  -5.50099 -13.4632 -31.699
LeftForeArm  22.7431 1.02184 -11.3868
LeftHand  -0.0465424 4.70112 4.21687
RightShoulder  0.595145 -1.45351 25.7833
RightArm  -43.5089 -15.0881 47.9701
RightForeArm  22.1298 -4.69685 -6.59857
RightHand  -0.0478631 -5.09106 -11.9594
LeftUpLeg  0.320512 2.83126 -0.377008
LeftLeg  16.3569 -4.83988 0.0555707
LeftFoot  -16.566 -0.171939 -5.93903
LeftToes  -1.2485e-010 1.20979e-011 -1.0929e-011
880
root  77.4065 38.3012 30.1581 1.07472 -13.5078 6.91069
RightUpLeg  -27.1796 -8.8654 -5.86566
RightLeg  6.87502 -15.727 -0.608315
RightFoot  -3.17367 -0.0506676 0.407203
RightToes  2.96424e-010 1.2921e-014 -6.02303e-014
Spine  -3.3592 -4.1122 -5.61311
Spine1  6.65197 -4.07025 0.714055
HEad  25.9132 -14.3412 2.06609
LeftShoulder1  0.704291 0.0572223 -15.0808
LeftArm  -6.12035 -18.0371 -33.0524
LeftForeArm  23.3309 -0.925998 -11.1976
LeftHand  -0.0509158 4.60154 4.42918
RightShoulder  0.591293 -1.51307 26.6715
RightArm  -44.3066 -15.8854 51.484
RightForeArm  21.5322 -4.62092 -7.0428
RightHand  -0.0877317 -4.62332 -10.8083
LeftUpLeg  4.02416 4.10522 1.03283
LeftLeg  14.0484 -6.89668 -0.447659
LeftFoot  -17.1004 -0.263083 -7.25821
LeftToes  -1.2485e-010 1.20979e-011 -1.0929e-011
881
root  76.4765 38.0152 31.7949 1.20018 -12.3559 7.51906
RightUpLeg  -24.9948 -5.46252 -9.22026
RightLeg  -4.05703 -19.5026 1.45433
RightFoot  -6.32755 -0.0358225 -0.162238
RightToes  2.96424e-010 1.2921e-014 -6.02303e-014
Spine  -4.35888 -4.78722 -6.37958
Spine1  6.98549 -4.83365 1.44715
HEad  26.1734 -13.5963 2.26318
LeftShoulder1  0.728395 -0.146008 -14.4477
LeftArm  -6.02638 -21.3762 -34.0563
LeftForeArm  24.3443 -4.40796 -11.0728
LeftHand  -0.066577 4.06368 4.21542
RightShoulder  0.559155 -1.64581 27.3766
RightArm  -43.1551 -16.7329 54.202
RightForeArm  19.0468 -4.76618 -6.29028
RightHand  -0.0664228 -4.81919 -9.88729
LeftUpLeg  6.89402 4.45434 2.01632
LeftLeg  13.5595 -9.33086 -0.884917
LeftFoot  -17.7527 -0.403386 -9.08377
LeftToes  -1.2485e-010 1.20979e-011 -1.0929e-011
882
root  75.5413 37.7016 33.3601 1.18182 -11.5441 7.97769
RightUpLeg  -26.0608 -6.43295 -10.032
RightLeg  -0.278963 -16.1562 0.00719006
RightFoot  -9.60709 -0.0980403 2.171
RightToes  2.96424e-010 1.2921e-014 -6.02303e-014
Spine  -3.77397 -4.94067 -6.32293
Spine1  6.44358 -5.25859 2.17069
HEad  25.7489 -12.2644 2.00712
LeftShoulder1  0.750631 -0.260646 -14.388
LeftArm  -2.61464 -23.4217 -35.2707
LeftForeArm  23.4116 -9.80356 -10.151
LeftHand  -0.0933617 3.2297 4.24849
RightShoulder  0.444959 -1.99803 27.6115
RightArm  -41.4586 -17.3773 55.99
RightForeArm  16.833 -4.9704 -5.1733
RightHand  -0.0373511 -5.15063 -8.02416
LeftUpLeg  9.03111 4.28026 3.22349
LeftLeg  14.6871 -11.2614 -1.57819
LeftFoot  -18.0882 -0.549773 -11.133
LeftToes  -1.2485e-010 1.20979e-011 -1.0929e-011
883
root  74.5926 37.7277 34.8845 1.26512 -11.8666 6.20241
RightUpLeg  -28.0317 -7.95155 -7.6412
RightLeg  7.1996 -17.7741 -0.521342
RightFoot  0.429259 0.294197 -2.82329
RightToes  2.96424e-010 1.2921e-014 -6.02303e-014
Spine  -3.33225 -4.32745 -2.57278
Spine1  7.40121 -5.19548 2.65481
HEad  24.5425 -10.1349 1.71638
LeftShoulder1  0.82485 -0.510801 -15.0086
LeftArm  3.10119 -23.8823 -36.6152
LeftForeArm  19.2925 -15.9618 -7.49193
LeftHand  -0.116935 3.00676 5.08219
RightShoulder  0.462586 -1.95814 27.9469
RightArm  -40.067 -17.1427 56.2322
RightForeArm  14.855 -5.08965 -4.50965
RightHand  -0.0126589 -5.6543 -5.57807
LeftUpLeg  11.7431 2.39921 5.93636
LeftLeg  14.8495 -11.0467 -1.34355
LeftFoot  -16.0869 -0.544441 -15.3759
LeftToes  -1.2485e-010 1.20979e-011 -1.0929e-011
884
root  73.51 37.9203 36.4429 1.73903 -12.1889 4.22723
RightUpLeg  -28.3268 -6.14215 -5.01416
RightLeg  11.813 -19.9044 -2.90245
RightFoot  6.88236 0.530924 -3.01353
RightToes  2.96424e-010 1.2921e-014 -6.02303e-014
Spine  -3.2881 -3.84286 0.69008
Spine1  7.65241 -5.13854 3.53605
HEad  25.0717 -6.97012 2.09254
LeftShoulder1  0.802176 -0.282062 -15.8234
LeftArm  8.06264 -22.8625 -38.6155
LeftForeArm  14.8536 -20.4664 -5.08162
LeftHand  -0.156273 2.79354 6.51305
RightShoulder  0.524192 -1.79072 28.2952
RightArm  -40.1515 -17.1949 55.0884
RightForeArm  15.8689 -5.04631 -4.75196
RightHand  0.0275958 -6.63837 -5.36379
LeftUpLeg  12.8696 -2.49734 7.98185
LeftLeg  16.7036 -6.5841 -1.3796
LeftFoot  -11.3017 0.0743324 -20.2822
LeftToes  -1.2485e-010 1.20979e-011 -1.0929e-011
885
root  72.4053 38.047 37.9013 2.69989 -12.9484 2.32425
RightUpLeg  -28.5658 -10.1188 -0.623744
RightLeg  15.6769 -15.1422 -2.61456
RightFoot  5.39692 0.438366 -2.72645
RightToes  2.96424e-010 1.2921e-014 -6.02303e-014
Spine  -2.87286 -3.42387 3.71713
Spine1  6.41951 -4.5961 3.68864
HEad  26.6974 -3.55545 3.33898
LeftShoulder1  0.790289 -0.0847777 -16.858
LeftArm  8.28482 -20.3439 -40.9316
LeftForeArm  15.4919 -23.1024 -4.22507
LeftHand  -0.17777 2.60715 7.02313
RightShoulder  0.60617 -1.55487 28.3832
RightArm  -41.3116 -16.8644 53.5932
RightForeArm  18.6498 -4.8832 -5.64019
RightHand  0.12366 -7.65743 -7.92615
LeftUpLeg  9.4744 -3.64808 10.8557
LeftLeg  25.35 -4.30527 -1.88601
LeftFoot  -3.96928 1.52442 -23.0171
LeftToes  -1.2485e-010 1.20979e-011 -1.0929e-011
886
root  71.3417 38.2043 39.2473 3.22713 -12.8524 0.641678
RightUpLeg  -27.5901 -12.9599 3.05053
RightLeg  18.1913 -12.2056 -2.74517
RightFoot  2.54562 0.473312 -3.74005
RightToes  2.96424e-010 1.2921e-014 -6.02303e-014
Spine  -3.00062 -3.34444 5.44004
Spine1  6.75527 -4.58965 4.56056
HEad  27.3553 -1.21373 5.69241
LeftShoulder1  0.823034 -0.168077 -17.2752
LeftArm  7.95816 -17.977 -43.7165
LeftForeArm  16.1718 -23.8093 -4.24456
LeftHand  -0.161096 2.86985 6.92908
RightShoulder  0.712334 -1.21145 27.818
RightArm  -42.5555 -15.5112 52.7679
RightForeArm  20.8606 -4.7072 -6.57895
RightHand  0.13407 -7.21741 -10.1909
LeftUpLeg  3.31696 -4.73112 13.0408
LeftLeg  37.3716 -2.03918 -1.30213
LeftFoot  6.18363 2.91723 -19.0202
LeftToes  -1.2485e-010 1.20979e-011 -1.0929e-011
887
root  70.2967 38.3912 40.5083 2.9091 -13.0008 -0.0161133
RightUpLeg  -25.1727 -11.3227 3.90641
RightLeg  19.8012 -13.7046 -3.37689
RightFoot  -0.152519 0.440383 -4.50079
RightToes  2.96424e-010 1.2921e-014 -6.02303e-014
Spine  -2.40418 -3.04784 6.25807
Spine1  6.73431 -4.13518 4.86524
HEad  27.7101 -0.991789 8.4873
LeftShoulder1  0.843915 -0.247508 -17.3385
LeftArm  10.6286 -16.1735 -46.4033
LeftForeArm  16.0918 -22.7437 -4.23035
LeftHand  -0.147812 2.90455 6.38052
RightShoulder  0.784268 -0.990638 27.7104
RightArm  -42.7859 -14.081 51.3222
RightForeArm  22.2949 -4.66147 -6.79133
RightHand  0.127607 -6.93285 -11.389
LeftUpLeg  -2.70068 -5.63996 13.3749
LeftLeg  47.5904 0.789777 1.35156
LeftFoot  19.0946 3.22687 -12.2628
LeftToes  -1.2485e-010 1.20979e-011 -1.0929e-011
888
root  69.2287 38.6344 41.8263 2.27228 -15.0524 -0.257736
RightUpLeg  -21.525 -7.97707 4.22162
RightLeg  19.6563 -15.2949 -3.13105
RightFoot  -2.55815 0.359729 -4.90323
RightToes  2.96424e-010 1.2921e-014 -6.02303e-014
Spine  -1.69527 -2.25078 7.53621
Spine1  6.34048 -2.78715 3.48942
HEad  28.2028 -1.31836 10.5396
LeftShoulder1  0.747379 0.176099 -17.478
LeftArm  13.4134 -13.7432 -48.1859
LeftForeArm  17.6362 -21.0116 -4.76904
LeftHand  -0.1208 3.194 5.69625
RightShoulder  0.886931 -0.685864 27.7275
RightArm  -42.832 -11.7225 49.2356
RightForeArm  25.6943 -4.61253 -6.92408
RightHand  0.081398 -6.33608 -12.499
LeftUpLeg  -7.1078 -5.40683 12.8233
LeftLeg  55.1213 3.02043 5.14882
LeftFoot  25.6853 4.0623 -12.5777
LeftToes  -1.2485e-010 1.20979e-011 -1.0929e-011
889
root  68.1811 38.7985 43.1911 1.83049 -17.9624 -0.419403
RightUpLeg  -18.1427 -5.70894 5.13791
RightLeg  19.4689 -14.912 -2.78944
RightFoot  -5.15797 0.253446 -5.33069
RightToes  2.96424e-010 1.2921e-014 -6.02303e-014
Spine  -2.14054 -1.60444 9.15382
Spine1  7.12052 -1.49905 1.24348
HEad  28.4249 -1.06384 11.4215
LeftShoulder1  0.555637 0.994109 -17.6453
LeftArm  15.0193 -10.3896 -48.7877
LeftForeArm  20.0145 -19.2003 -5.82401
LeftHand  -0.104043 3.44025 5.33209
RightShoulder  1.08634 -0.0143152 26.906
RightArm  -42.7546 -8.39395 48.2448
RightForeArm  29.3311 -4.59168 -6.83156
RightHand  0.0574377 -6.03816 -13.5741
LeftUpLeg  -10.9021 -4.14768 12.0851
LeftLeg  60.3307 1.75812 3.91591
LeftFoot  22.5353 3.88397 -13.172
LeftToes  -1.2485e-010 1.20979e-011 -1.0929e-011
890
root  67.1435 38.9028 44.5792 1.36885 -21.2548 -0.195358
RightUpLeg  -14.8337 -5.07564 5.67205
RightLeg  19.2893 -12.6008 -1.75572
RightFoot  -7.73878 0.133473 -5.89697
RightToes  2.96424e-010 1.2921e-014 -6.02303e-014
Spine  -2.11047 -1.00895 9.77816
Spine1  6.8934 -0.484015 -0.0762423
HEad  28.6628 -0.891646 10.9546
LeftShoulder1  0.404124 1.68421 -18.606
LeftArm  15.7398 -5.69605 -48.237
LeftForeArm  21.6513 -17.3272 -7.19719
LeftHand  -0.100602 3.54096 5.37871
RightShoulder  1.22147 0.53946 25.6464
RightArm  -42.1847 -5.0297 47.3227
RightForeArm  31.7332 -4.65661 -6.29585
RightHand  -0.00772575 -5.45927 -14.1344
LeftUpLeg  -14.2277 -3.13417 10.5785
LeftLeg  62.9861 0.220015 1.09487
LeftFoot  15.8048 2.9337 -12.5174
LeftToes  -1.2485e-010 1.20979e-011 -1.0929e-011
891
root  66.1381 38.9397 45.9209 1.21191 -24.011 -0.0661774
RightUpLeg  -11.8465 -4.34698 6.07629
RightLeg  19.0756 -11.0268 -0.950794
RightFoot  -9.89671 0.0155493 -6.51874
RightToes  2.96424e-010 1.2921e-014 -6.02303e-014
Spine  -2.04719 -0.827025 10.2922
Spine1  6.31296 -0.0342937 -1.14014
HEad  28.3189 -1.02379 9.94874
LeftShoulder1  0.250325 2.33345 -19.5091
LeftArm  14.74 -0.593192 -47.4489
LeftForeArm  22.9649 -14.6044 -9.17646
LeftHand  -0.095158 3.72756 5.55028
RightShoulder  1.30944 0.959977 24.5438
RightArm  -40.6475 -0.325673 46.2755
RightForeArm  32.5322 -4.80936 -5.37255
RightHand  -0.0667116 -4.97339 -14.5702
LeftUpLeg  -18.0024 -3.39549 8.93413
LeftLeg  63.4164 -0.0183641 0.590738
LeftFoot  9.65938 2.05715 -11.3893
LeftToes  -1.2485e-010 1.20979e-011 -1.0929e-011
